<svg viewBox="0 0 223.53 174.29" xmlns="http://www.w3.org/2000/svg"><path d="m106.07 11c10.1 1.05 20.22 1.67 30.2 3.24 18.92 3 37.58 7.24 55.53 14.08a119.88 119.88 0 0 1 13.43 6.32c2.58 1.38 5 3.24 4.26 7.17-2.35 4.09-6.71 4.76-10.93 5-11 .68-22.05 1.1-33.08 1.48-12.83.44-25.66.73-37.6 1.07-3.77 2-4.16 4.82-3.74 7.49 1 6 2 12 3.55 17.82 3.39 13.06 7.37 26 10.59 39.08 2.31 9.44 3.3 19 1 28.77-2.49 10.6-9.25 16.9-19.51 19.23a64.27 64.27 0 0 1 -16.08 1.44c-12.68-.41-25.06-2.67-36.8-7.74-21.18-9.14-35.31-25.23-44.83-45.76-3.79-8.16-6.93-16.57-8.18-26.25z" fill="none" stroke="#000" stroke-miterlimit="10" stroke-width="1.77"/></svg>